<?xml version="1.0" encoding="UTF-8" standalone="no"?>
<svg
   viewBox="0 0 409600 409600"
   version="1.1"
   id="svg1"
   sodipodi:docname="globe-solid-full.svg"
   inkscape:export-filename="../v2ray-lists-site/images/logo.png"
   inkscape:export-xdpi="96"
   inkscape:export-ydpi="96"
   width="409600"
   height="409600"
   xmlns:inkscape="http://www.inkscape.org/namespaces/inkscape"
   xmlns:sodipodi="http://sodipodi.sourceforge.net/DTD/sodipodi-0.dtd"
   xmlns="http://www.w3.org/2000/svg"
   xmlns:svg="http://www.w3.org/2000/svg">
  <defs
     id="defs1">
    <rect
       x="125.56102"
       y="175.78542"
       width="494.3139"
       height="306.63321"
       id="rect1" />
    <rect
       x="125.56102"
       y="175.78542"
       width="494.3139"
       height="306.63321"
       id="rect1-7" />
    <filter
       inkscape:collect="always"
       style="color-interpolation-filters:sRGB"
       id="filter1"
       x="-0.035395007"
       y="-0.083154173"
       width="1.07079"
       height="1.1663083">
      <feGaussianBlur
         inkscape:collect="always"
         stdDeviation="1.3489438"
         id="feGaussianBlur1" />
    </filter>
  </defs>
  <sodipodi:namedview
     id="namedview1"
     pagecolor="#ffffff"
     bordercolor="#000000"
     borderopacity="0.25"
     inkscape:showpageshadow="2"
     inkscape:pageopacity="0.0"
     inkscape:pagecheckerboard="0"
     inkscape:deskcolor="#d1d1d1">
    <inkscape:page
       x="0"
       y="0"
       width="409600"
       height="409600"
       id="page2"
       margin="0"
       bleed="0" />
  </sodipodi:namedview>
  <!--!Font Awesome Free 7.2.0 by @fontawesome - https://fontawesome.com License - https://fontawesome.com/license/free Copyright 2026 Fonticons, Inc.-->
  <path
     d="M 440.04665,350.06827 H 200.87864 c 3.63324,80.80847 21.54892,155.22744 46.98166,209.72616 14.28243,30.6947 29.69242,52.3689 43.97484,65.64906 14.03186,13.15486 23.67876,15.2847 28.69014,15.2847 5.01138,0 14.65828,-2.12984 28.69014,-15.2847 14.28243,-13.28016 29.69242,-35.07964 43.97484,-65.64906 25.43275,-54.49872 43.34842,-128.91769 46.98168,-209.72616 z M 200.75335,289.93173 H 439.92136 C 436.4134,209.12327 418.49772,134.7043 393.06498,80.205566 378.78256,49.636152 363.37256,27.836662 349.09014,14.55651 335.05828,1.4016437 325.41138,-0.72819216 320.4,-0.72819216 c -5.01138,0 -14.65828,2.12983586 -28.69014,15.28470216 C 277.42744,27.836662 262.01744,49.636152 247.73502,80.205566 222.30228,134.7043 204.3866,209.12327 200.75335,289.93173 Z m -60.13653,0 C 145.00177,182.68825 172.68964,83.087107 213.15651,17.688622 97.769535,58.53135 12.826675,163.64501 1.0499369,289.93173 Z M 1.0499369,350.06827 C 12.826675,476.35499 97.769535,581.46865 213.15651,622.31138 172.68964,556.91289 145.00177,457.31175 140.61682,350.06827 Z m 499.1332431,0 C 495.79823,457.31175 468.11036,556.91289 427.64349,622.31138 543.03047,581.34337 627.97332,476.35499 639.75006,350.06827 Z M 639.75006,289.93173 C 627.97332,163.64501 543.03047,58.53135 427.64349,17.688622 468.11036,83.087107 495.79823,182.68825 500.18318,289.93173 Z"
     id="path1"
     style="fill:#cba6f7;fill-opacity:1;stroke-width:1.25284" />
  <text
     xml:space="preserve"
     transform="matrix(6.5227581,0,0,6.325611,-788.80071,-953.79224)"
     id="text1-1"
     style="font-style:normal;font-variant:normal;font-weight:800;font-stretch:normal;font-size:53.3333px;font-family:'JetBrains Mono';-inkscape-font-specification:'JetBrains Mono Ultra-Bold';writing-mode:lr-tb;direction:ltr;white-space:pre;shape-inside:url(#rect1-7);display:inline;mix-blend-mode:normal;fill:#70687a;fill-opacity:1;stroke:none;stroke-width:113.386;stroke-linejoin:round;filter:url(#filter1)"
     inkscape:label="text1-1"><tspan
       x="125.56055"
       y="223.66392"
       id="tspan2">VPN</tspan></text>
  <text
     xml:space="preserve"
     transform="matrix(6.434947,0,0,6.434947,-790.847,-993.99863)"
     id="text1"
     style="font-style:normal;font-variant:normal;font-weight:800;font-stretch:normal;font-size:53.3333px;font-family:'JetBrains Mono';-inkscape-font-specification:'JetBrains Mono Ultra-Bold';writing-mode:lr-tb;direction:ltr;white-space:pre;shape-inside:url(#rect1);display:inline;fill:#cdd6f4;fill-opacity:1;stroke:none;stroke-width:113.386;stroke-linejoin:round"><tspan
       x="125.56055"
       y="223.66392"
       id="tspan3">VPN</tspan></text>
</svg>
